<?xml version="1.0" standalone="no"?>
<!DOCTYPE svg PUBLIC "-//W3C//DTD SVG 20010904//EN"
 "http://www.w3.org/TR/2001/REC-SVG-20010904/DTD/svg10.dtd">
<svg version="1.0" xmlns="http://www.w3.org/2000/svg"
 width="329.000000pt" height="329.000000pt" viewBox="0 0 329.000000 329.000000"
 preserveAspectRatio="xMidYMid meet">
<metadata>
Created by potrace 1.11, written by Peter Selinger 2001-2013
</metadata>
<g transform="translate(0.000000,329.000000) scale(0.100000,-0.100000)"
fill="#000000" stroke="none">
<path d="M1445 3274 c-642 -92 -1159 -511 -1361 -1105 -66 -195 -78 -278 -78
-529 0 -195 3 -238 22 -327 143 -655 634 -1145 1288 -1285 95 -20 136 -23 329
-23 193 0 234 3 329 23 654 140 1145 630 1288 1285 19 89 22 131 22 327 0 196
-3 238 -22 327 -142 653 -633 1143 -1283 1284 -85 18 -141 22 -304 25 -110 1
-213 0 -230 -2z m330 -104 c277 -27 505 -107 730 -258 640 -428 863 -1269 519
-1953 -122 -245 -295 -441 -519 -591 -525 -352 -1195 -352 -1720 0 -640 428
-863 1269 -519 1953 259 518 767 838 1359 858 22 0 90 -4 150 -9z"/>
<path d="M1669 2755 c-102 -16 -280 -56 -399 -88 l-85 -23 -3 -444 c-2 -430
-2 -445 18 -486 12 -23 32 -50 45 -58 18 -12 25 -26 25 -49 0 -43 34 -96 70
-109 28 -9 30 -14 30 -58 0 -36 9 -65 36 -116 43 -81 119 -196 186 -280 46
-60 48 -64 48 -128 l0 -66 -460 0 -460 0 0 -80 0 -80 950 0 950 0 0 80 0 80
-465 0 -465 0 0 63 c0 55 3 67 26 88 37 34 148 204 200 305 35 67 44 95 44
134 0 38 4 50 15 50 8 0 29 13 46 28 24 21 32 39 36 74 4 35 12 51 33 66 60
45 60 46 60 547 0 512 2 498 -73 537 -37 20 -59 23 -182 25 -82 1 -175 -4
-226 -12z m351 -1157 c0 -16 -9 -37 -20 -48 -19 -19 -33 -20 -335 -20 -302 0
-316 1 -335 20 -11 11 -20 32 -20 48 l0 27 355 0 355 0 0 -27z"/>
<path d="M1000 1737 c0 -8 17 -40 38 -73 49 -76 243 -317 249 -310 9 9 -155
267 -224 354 -34 41 -63 55 -63 29z"/>
<path d="M2268 1700 c-39 -30 -266 -375 -255 -386 11 -11 267 318 286 368 13
35 0 43 -31 18z"/>
<path d="M2594 1541 c-49 -33 -131 -93 -182 -134 -132 -106 -391 -331 -386
-336 10 -11 470 293 592 390 84 68 126 115 116 131 -13 20 -57 4 -140 -51z"/>
<path d="M950 1552 c0 -47 151 -217 409 -459 102 -95 189 -173 194 -173 15 0
-216 288 -375 467 -132 149 -228 218 -228 165z"/>
<path d="M776 1471 c-11 -16 44 -70 143 -140 92 -66 319 -213 371 -241 24 -13
24 -12 10 5 -20 24 -246 212 -338 282 -116 87 -173 116 -186 94z"/>
<path d="M2229 1445 c-24 -19 -79 -74 -123 -122 -109 -122 -319 -383 -313
-389 15 -16 471 439 500 498 28 59 0 64 -64 13z"/>
<path d="M2491 1312 c-66 -35 -293 -193 -287 -199 13 -14 356 186 356 207 0
20 -21 18 -69 -8z"/>
<path d="M2730 1322 c-64 -26 -214 -111 -207 -118 6 -7 197 64 241 89 67 38
43 59 -34 29z"/>
<path d="M540 1316 c0 -17 71 -52 194 -95 116 -41 98 -19 -45 53 -112 57 -149
67 -149 42z"/>
<path d="M786 1322 c-8 -13 40 -54 109 -94 115 -68 236 -130 241 -125 12 11
-311 227 -339 227 -3 0 -8 -4 -11 -8z"/>
<path d="M687 1158 c-46 -34 53 -58 338 -83 103 -9 73 9 -85 49 -173 44 -229
51 -253 34z"/>
<path d="M2615 1163 c-86 -12 -332 -80 -322 -89 12 -12 338 27 390 48 30 12
36 33 11 42 -16 6 -27 6 -79 -1z"/>
</g>
</svg>
